<svg width="207" height="237" fill="none" xmlns="http://www.w3.org/2000/svg"><path d="M205.067 223.431h-45.054V71.676c0-3.27-.253-7.064-1.203-10.644-.949-3.578-2.615-7.016-5.495-9.48l-.011-.008-.01-.009c-4.85-3.925-11.054-5.923-17.361-5.601h-11.277v122.042a102.587 102.587 0 01-4.081 30.893c-2.292 7.814-6.381 15.03-11.964 21.111-5.24 5.43-11.815 9.501-19.12 11.834a80.238 80.238 0 01-24.967 3.611h-.031l-.032.001c-17.035.837-33.713-4.875-46.39-15.877-13.763-13.096-17.048-33.427-17.048-51.433V44.382A75.128 75.128 0 013.385 23.84l.001-.007.002-.007c1.263-5.205 3.973-9.982 7.845-13.815 3.834-3.433 8.575-5.785 13.707-6.793h0A91.156 91.156 0 0144 1.515h92.577a92.407 92.407 0 0126.772 3.778c8.196 2.462 15.684 6.73 21.875 12.462 6.461 6.216 11.363 13.773 14.336 22.092a87.915 87.915 0 015.065 31.376v.025l.442 152.183zM86.504 46.934v-1H52.927c-2.37 0-4.142.519-5.253 1.89-1.065 1.313-1.316 3.177-1.316 5.295v114.575c-.578 6.486 1.344 12.946 5.39 18.141l.059.075.071.062a20.806 20.806 0 006.955 4.019 21.286 21.286 0 007.956 1.125 20.03 20.03 0 007.761-1.092 19.56 19.56 0 006.729-4.012l.015-.014.014-.014c2.35-2.329 3.63-5.745 4.334-9.168.704-3.422.86-6.985.862-9.776V46.934z" stroke="#fff" stroke-opacity=".05" stroke-width="2"/></svg>