<svg width="393" height="150" fill="none" xmlns="http://www.w3.org/2000/svg"><path d="M193.551 0v2.913m0 0v2.912m0-2.912h-2.911m2.911 0h2.912m-2.912 10.194v2.912m0 0v2.913m0-2.913h-2.911m2.911 0h2.912m-2.912 10.195v2.912m0 0v2.913m0-2.913h-2.911m2.911 0h2.912m-2.912 10.194v2.913m0 0v2.913m0-2.913h-2.911m2.911 0h2.912m-2.912 10.194v2.913m0 0v2.912m0-2.912h-2.911m2.911 0h2.912m-2.912 10.194v2.913m0 0v2.912m0-2.912h-2.911m2.911 0h2.912m-2.912 10.194v2.912m0 0v2.913m0-2.913h-2.911m2.911 0h2.912m-2.912 10.195v2.912m0 0v2.913m0-2.913h-2.911m2.911 0h2.912m-2.912 10.194v2.913m0 0v2.913m0-2.913h-2.911m2.911 0h2.912m-2.912 10.194v2.913m0 0v2.912m0-2.912h-2.911m2.911 0h2.912m-2.912 10.194v2.913m0 0v2.912m0-2.912h-2.911m2.911 0h2.912m-2.912 10.194v2.912m0 0V150m0-2.913h-2.911m2.911 0h2.912M206.654 0v2.913m0 0v2.912m0-2.912h-2.912m2.912 0h2.911m-2.911 10.194v2.912m0 0v2.913m0-2.913h-2.912m2.912 0h2.911m-2.911 10.195v2.912m0 0v2.913m0-2.913h-2.912m2.912 0h2.911m-2.911 10.194v2.913m0 0v2.913m0-2.913h-2.912m2.912 0h2.911m-2.911 10.194v2.913m0 0v2.912m0-2.912h-2.912m2.912 0h2.911m-2.911 10.194v2.913m0 0v2.912m0-2.912h-2.912m2.912 0h2.911m-2.911 10.194v2.912m0 0v2.913m0-2.913h-2.912m2.912 0h2.911m-2.911 10.195v2.912m0 0v2.913m0-2.913h-2.912m2.912 0h2.911m-2.911 10.194v2.913m0 0v2.913m0-2.913h-2.912m2.912 0h2.911m-2.911 10.194v2.913m0 0v2.912m0-2.912h-2.912m2.912 0h2.911m-2.911 10.194v2.913m0 0v2.912m0-2.912h-2.912m2.912 0h2.911m-2.911 10.194v2.912m0 0V150m0-2.913h-2.912m2.912 0h2.911M219.756 0v2.913m0 0v2.912m0-2.912h-2.911m2.911 0h2.912m-2.912 10.194v2.912m0 0v2.913m0-2.913h-2.911m2.911 0h2.912m-2.912 10.195v2.912m0 0v2.913m0-2.913h-2.911m2.911 0h2.912m-2.912 10.194v2.913m0 0v2.913m0-2.913h-2.911m2.911 0h2.912m-2.912 10.194v2.913m0 0v2.912m0-2.912h-2.911m2.911 0h2.912m-2.912 10.194v2.913m0 0v2.912m0-2.912h-2.911m2.911 0h2.912m-2.912 10.194v2.912m0 0v2.913m0-2.913h-2.911m2.911 0h2.912m-2.912 10.195v2.912m0 0v2.913m0-2.913h-2.911m2.911 0h2.912m-2.912 10.194v2.913m0 0v2.913m0-2.913h-2.911m2.911 0h2.912m-2.912 10.194v2.913m0 0v2.912m0-2.912h-2.911m2.911 0h2.912m-2.912 10.194v2.913m0 0v2.912m0-2.912h-2.911m2.911 0h2.912m-2.912 10.194v2.912m0 0V150m0-2.913h-2.911m2.911 0h2.912M232.859 0v2.913m0 0v2.912m0-2.912h-2.912m2.912 0h2.911m-2.911 10.194v2.912m0 0v2.913m0-2.913h-2.912m2.912 0h2.911m-2.911 10.195v2.912m0 0v2.913m0-2.913h-2.912m2.912 0h2.911m-2.911 10.194v2.913m0 0v2.913m0-2.913h-2.912m2.912 0h2.911m-2.911 10.194v2.913m0 0v2.912m0-2.912h-2.912m2.912 0h2.911m-2.911 10.194v2.913m0 0v2.912m0-2.912h-2.912m2.912 0h2.911m-2.911 10.194v2.912m0 0v2.913m0-2.913h-2.912m2.912 0h2.911m-2.911 10.195v2.912m0 0v2.913m0-2.913h-2.912m2.912 0h2.911m-2.911 10.194v2.913m0 0v2.913m0-2.913h-2.912m2.912 0h2.911m-2.911 10.194v2.913m0 0v2.912m0-2.912h-2.912m2.912 0h2.911m-2.911 10.194v2.913m0 0v2.912m0-2.912h-2.912m2.912 0h2.911m-2.911 10.194v2.912m0 0V150m0-2.913h-2.912m2.912 0h2.911M245.961 0v2.913m0 0v2.912m0-2.912h-2.912m2.912 0h2.912m-2.912 10.194v2.912m0 0v2.913m0-2.913h-2.912m2.912 0h2.912m-2.912 10.195v2.912m0 0v2.913m0-2.913h-2.912m2.912 0h2.912m-2.912 10.194v2.913m0 0v2.913m0-2.913h-2.912m2.912 0h2.912m-2.912 10.194v2.913m0 0v2.912m0-2.912h-2.912m2.912 0h2.912m-2.912 10.194v2.913m0 0v2.912m0-2.912h-2.912m2.912 0h2.912m-2.912 10.194v2.912m0 0v2.913m0-2.913h-2.912m2.912 0h2.912m-2.912 10.195v2.912m0 0v2.913m0-2.913h-2.912m2.912 0h2.912m-2.912 10.194v2.913m0 0v2.913m0-2.913h-2.912m2.912 0h2.912m-2.912 10.194v2.913m0 0v2.912m0-2.912h-2.912m2.912 0h2.912m-2.912 10.194v2.913m0 0v2.912m0-2.912h-2.912m2.912 0h2.912m-2.912 10.194v2.912m0 0V150m0-2.913h-2.912m2.912 0h2.912M259.064 0v2.913m0 0v2.912m0-2.912h-2.912m2.912 0h2.911m-2.911 10.194v2.912m0 0v2.913m0-2.913h-2.912m2.912 0h2.911m-2.911 10.195v2.912m0 0v2.913m0-2.913h-2.912m2.912 0h2.911m-2.911 10.194v2.913m0 0v2.913m0-2.913h-2.912m2.912 0h2.911m-2.911 10.194v2.913m0 0v2.912m0-2.912h-2.912m2.912 0h2.911m-2.911 10.194v2.913m0 0v2.912m0-2.912h-2.912m2.912 0h2.911m-2.911 10.194v2.912m0 0v2.913m0-2.913h-2.912m2.912 0h2.911m-2.911 10.195v2.912m0 0v2.913m0-2.913h-2.912m2.912 0h2.911m-2.911 10.194v2.913m0 0v2.913m0-2.913h-2.912m2.912 0h2.911m-2.911 10.194v2.913m0 0v2.912m0-2.912h-2.912m2.912 0h2.911m-2.911 10.194v2.913m0 0v2.912m0-2.912h-2.912m2.912 0h2.911m-2.911 10.194v2.912m0 0V150m0-2.913h-2.912m2.912 0h2.911M272.166 0v2.913m0 0v2.912m0-2.912h-2.912m2.912 0h2.912m-2.912 10.194v2.912m0 0v2.913m0-2.913h-2.912m2.912 0h2.912m-2.912 10.195v2.912m0 0v2.913m0-2.913h-2.912m2.912 0h2.912m-2.912 10.194v2.913m0 0v2.913m0-2.913h-2.912m2.912 0h2.912m-2.912 10.194v2.913m0 0v2.912m0-2.912h-2.912m2.912 0h2.912m-2.912 10.194v2.913m0 0v2.912m0-2.912h-2.912m2.912 0h2.912m-2.912 10.194v2.912m0 0v2.913m0-2.913h-2.912m2.912 0h2.912m-2.912 10.195v2.912m0 0v2.913m0-2.913h-2.912m2.912 0h2.912m-2.912 10.194v2.913m0 0v2.913m0-2.913h-2.912m2.912 0h2.912m-2.912 10.194v2.913m0 0v2.912m0-2.912h-2.912m2.912 0h2.912m-2.912 10.194v2.913m0 0v2.912m0-2.912h-2.912m2.912 0h2.912m-2.912 10.194v2.912m0 0V150m0-2.913h-2.912m2.912 0h2.912M285.269 0v2.913m0 0v2.912m0-2.912h-2.912m2.912 0h2.911m-2.911 10.194v2.912m0 0v2.913m0-2.913h-2.912m2.912 0h2.911m-2.911 10.195v2.912m0 0v2.913m0-2.913h-2.912m2.912 0h2.911m-2.911 10.194v2.913m0 0v2.913m0-2.913h-2.912m2.912 0h2.911m-2.911 10.194v2.913m0 0v2.912m0-2.912h-2.912m2.912 0h2.911m-2.911 10.194v2.913m0 0v2.912m0-2.912h-2.912m2.912 0h2.911m-2.911 10.194v2.912m0 0v2.913m0-2.913h-2.912m2.912 0h2.911m-2.911 10.195v2.912m0 0v2.913m0-2.913h-2.912m2.912 0h2.911m-2.911 10.194v2.913m0 0v2.913m0-2.913h-2.912m2.912 0h2.911m-2.911 10.194v2.913m0 0v2.912m0-2.912h-2.912m2.912 0h2.911m-2.911 10.194v2.913m0 0v2.912m0-2.912h-2.912m2.912 0h2.911m-2.911 10.194v2.912m0 0V150m0-2.913h-2.912m2.912 0h2.911M298.371 0v2.913m0 0v2.912m0-2.912h-2.912m2.912 0h2.912m-2.912 10.194v2.912m0 0v2.913m0-2.913h-2.912m2.912 0h2.912m-2.912 10.195v2.912m0 0v2.913m0-2.913h-2.912m2.912 0h2.912m-2.912 10.194v2.913m0 0v2.913m0-2.913h-2.912m2.912 0h2.912m-2.912 10.194v2.913m0 0v2.912m0-2.912h-2.912m2.912 0h2.912m-2.912 10.194v2.913m0 0v2.912m0-2.912h-2.912m2.912 0h2.912m-2.912 10.194v2.912m0 0v2.913m0-2.913h-2.912m2.912 0h2.912m-2.912 10.195v2.912m0 0v2.913m0-2.913h-2.912m2.912 0h2.912m-2.912 10.194v2.913m0 0v2.913m0-2.913h-2.912m2.912 0h2.912m-2.912 10.194v2.913m0 0v2.912m0-2.912h-2.912m2.912 0h2.912m-2.912 10.194v2.913m0 0v2.912m0-2.912h-2.912m2.912 0h2.912m-2.912 10.194v2.912m0 0V150m0-2.913h-2.912m2.912 0h2.912M311.473 0v2.913m0 0v2.912m0-2.912h-2.911m2.911 0h2.912m-2.912 10.194v2.912m0 0v2.913m0-2.913h-2.911m2.911 0h2.912m-2.912 10.195v2.912m0 0v2.913m0-2.913h-2.911m2.911 0h2.912m-2.912 10.194v2.913m0 0v2.913m0-2.913h-2.911m2.911 0h2.912m-2.912 10.194v2.913m0 0v2.912m0-2.912h-2.911m2.911 0h2.912m-2.912 10.194v2.913m0 0v2.912m0-2.912h-2.911m2.911 0h2.912m-2.912 10.194v2.912m0 0v2.913m0-2.913h-2.911m2.911 0h2.912m-2.912 10.195v2.912m0 0v2.913m0-2.913h-2.911m2.911 0h2.912m-2.912 10.194v2.913m0 0v2.913m0-2.913h-2.911m2.911 0h2.912m-2.912 10.194v2.913m0 0v2.912m0-2.912h-2.911m2.911 0h2.912m-2.912 10.194v2.913m0 0v2.912m0-2.912h-2.911m2.911 0h2.912m-2.912 10.194v2.912m0 0V150m0-2.913h-2.911m2.911 0h2.912M324.576 0v2.913m0 0v2.912m0-2.912h-2.912m2.912 0h2.912m-2.912 10.194v2.912m0 0v2.913m0-2.913h-2.912m2.912 0h2.912m-2.912 10.195v2.912m0 0v2.913m0-2.913h-2.912m2.912 0h2.912m-2.912 10.194v2.913m0 0v2.913m0-2.913h-2.912m2.912 0h2.912m-2.912 10.194v2.913m0 0v2.912m0-2.912h-2.912m2.912 0h2.912m-2.912 10.194v2.913m0 0v2.912m0-2.912h-2.912m2.912 0h2.912m-2.912 10.194v2.912m0 0v2.913m0-2.913h-2.912m2.912 0h2.912m-2.912 10.195v2.912m0 0v2.913m0-2.913h-2.912m2.912 0h2.912m-2.912 10.194v2.913m0 0v2.913m0-2.913h-2.912m2.912 0h2.912m-2.912 10.194v2.913m0 0v2.912m0-2.912h-2.912m2.912 0h2.912m-2.912 10.194v2.913m0 0v2.912m0-2.912h-2.912m2.912 0h2.912m-2.912 10.194v2.912m0 0V150m0-2.913h-2.912m2.912 0h2.912M337.678 0v2.913m0 0v2.912m0-2.912h-2.911m2.911 0h2.912m-2.912 10.194v2.912m0 0v2.913m0-2.913h-2.911m2.911 0h2.912m-2.912 10.195v2.912m0 0v2.913m0-2.913h-2.911m2.911 0h2.912m-2.912 10.194v2.913m0 0v2.913m0-2.913h-2.911m2.911 0h2.912m-2.912 10.194v2.913m0 0v2.912m0-2.912h-2.911m2.911 0h2.912m-2.912 10.194v2.913m0 0v2.912m0-2.912h-2.911m2.911 0h2.912m-2.912 10.194v2.912m0 0v2.913m0-2.913h-2.911m2.911 0h2.912m-2.912 10.195v2.912m0 0v2.913m0-2.913h-2.911m2.911 0h2.912m-2.912 10.194v2.913m0 0v2.913m0-2.913h-2.911m2.911 0h2.912m-2.912 10.194v2.913m0 0v2.912m0-2.912h-2.911m2.911 0h2.912m-2.912 10.194v2.913m0 0v2.912m0-2.912h-2.911m2.911 0h2.912m-2.912 10.194v2.912m0 0V150m0-2.913h-2.911m2.911 0h2.912M350.781 0v2.913m0 0v2.912m0-2.912h-2.912m2.912 0h2.912m-2.912 10.194v2.912m0 0v2.913m0-2.913h-2.912m2.912 0h2.912m-2.912 10.195v2.912m0 0v2.913m0-2.913h-2.912m2.912 0h2.912m-2.912 10.194v2.913m0 0v2.913m0-2.913h-2.912m2.912 0h2.912m-2.912 10.194v2.913m0 0v2.912m0-2.912h-2.912m2.912 0h2.912m-2.912 10.194v2.913m0 0v2.912m0-2.912h-2.912m2.912 0h2.912m-2.912 10.194v2.912m0 0v2.913m0-2.913h-2.912m2.912 0h2.912m-2.912 10.195v2.912m0 0v2.913m0-2.913h-2.912m2.912 0h2.912m-2.912 10.194v2.913m0 0v2.913m0-2.913h-2.912m2.912 0h2.912m-2.912 10.194v2.913m0 0v2.912m0-2.912h-2.912m2.912 0h2.912m-2.912 10.194v2.913m0 0v2.912m0-2.912h-2.912m2.912 0h2.912m-2.912 10.194v2.912m0 0V150m0-2.913h-2.912m2.912 0h2.912M363.883 0v2.913m0 0v2.912m0-2.912h-2.911m2.911 0h2.912m-2.912 10.194v2.912m0 0v2.913m0-2.913h-2.911m2.911 0h2.912m-2.912 10.195v2.912m0 0v2.913m0-2.913h-2.911m2.911 0h2.912m-2.912 10.194v2.913m0 0v2.913m0-2.913h-2.911m2.911 0h2.912m-2.912 10.194v2.913m0 0v2.912m0-2.912h-2.911m2.911 0h2.912m-2.912 10.194v2.913m0 0v2.912m0-2.912h-2.911m2.911 0h2.912m-2.912 10.194v2.912m0 0v2.913m0-2.913h-2.911m2.911 0h2.912m-2.912 10.195v2.912m0 0v2.913m0-2.913h-2.911m2.911 0h2.912m-2.912 10.194v2.913m0 0v2.913m0-2.913h-2.911m2.911 0h2.912m-2.912 10.194v2.913m0 0v2.912m0-2.912h-2.911m2.911 0h2.912m-2.912 10.194v2.913m0 0v2.912m0-2.912h-2.911m2.911 0h2.912m-2.912 10.194v2.912m0 0V150m0-2.913h-2.911m2.911 0h2.912M376.986 0v2.913m0 0v2.912m0-2.912h-2.912m2.912 0h2.912m-2.912 10.194v2.912m0 0v2.913m0-2.913h-2.912m2.912 0h2.912m-2.912 10.195v2.912m0 0v2.913m0-2.913h-2.912m2.912 0h2.912m-2.912 10.194v2.913m0 0v2.913m0-2.913h-2.912m2.912 0h2.912m-2.912 10.194v2.913m0 0v2.912m0-2.912h-2.912m2.912 0h2.912m-2.912 10.194v2.913m0 0v2.912m0-2.912h-2.912m2.912 0h2.912m-2.912 10.194v2.912m0 0v2.913m0-2.913h-2.912m2.912 0h2.912m-2.912 10.195v2.912m0 0v2.913m0-2.913h-2.912m2.912 0h2.912m-2.912 10.194v2.913m0 0v2.913m0-2.913h-2.912m2.912 0h2.912m-2.912 10.194v2.913m0 0v2.912m0-2.912h-2.912m2.912 0h2.912m-2.912 10.194v2.913m0 0v2.912m0-2.912h-2.912m2.912 0h2.912m-2.912 10.194v2.912m0 0V150m0-2.913h-2.912m2.912 0h2.912M390.088 0v2.913m0 0v2.912m0-2.912h-2.911m2.911 0H393m-2.912 10.194v2.912m0 0v2.913m0-2.913h-2.911m2.911 0H393m-2.912 10.195v2.912m0 0v2.913m0-2.913h-2.911m2.911 0H393m-2.912 10.194v2.913m0 0v2.913m0-2.913h-2.911m2.911 0H393m-2.912 10.194v2.913m0 0v2.912m0-2.912h-2.911m2.911 0H393m-2.912 10.194v2.913m0 0v2.912m0-2.912h-2.911m2.911 0H393m-2.912 10.194v2.912m0 0v2.913m0-2.913h-2.911m2.911 0H393m-2.912 10.195v2.912m0 0v2.913m0-2.913h-2.911m2.911 0H393m-2.912 10.194v2.913m0 0v2.913m0-2.913h-2.911m2.911 0H393m-2.912 10.194v2.913m0 0v2.912m0-2.912h-2.911m2.911 0H393m-2.912 10.194v2.913m0 0v2.912m0-2.912h-2.911m2.911 0H393m-2.912 10.194v2.912m0 0V150m0-2.913h-2.911m2.911 0H393M-16.088 0v2.913m0 0v2.912m0-2.912H-19m2.912 0h2.911m-2.911 10.194v2.912m0 0v2.913m0-2.913H-19m2.912 0h2.911m-2.911 10.195v2.912m0 0v2.913m0-2.913H-19m2.912 0h2.911m-2.911 10.194v2.913m0 0v2.913m0-2.913H-19m2.912 0h2.911m-2.911 10.194v2.913m0 0v2.912m0-2.912H-19m2.912 0h2.911m-2.911 10.194v2.913m0 0v2.912m0-2.912H-19m2.912 0h2.911m-2.911 10.194v2.912m0 0v2.913m0-2.913H-19m2.912 0h2.911m-2.911 10.195v2.912m0 0v2.913m0-2.913H-19m2.912 0h2.911m-2.911 10.194v2.913m0 0v2.913m0-2.913H-19m2.912 0h2.911m-2.911 10.194v2.913m0 0v2.912m0-2.912H-19m2.912 0h2.911m-2.911 10.194v2.913m0 0v2.912m0-2.912H-19m2.912 0h2.911m-2.911 10.194v2.912m0 0V150m0-2.913H-19m2.912 0h2.911M-2.986 0v2.913m0 0v2.912m0-2.912h-2.912m2.912 0h2.912m-2.912 10.194v2.912m0 0v2.913m0-2.913h-2.912m2.912 0h2.912m-2.912 10.195v2.912m0 0v2.913m0-2.913h-2.912m2.912 0h2.912M-2.986 39.32v2.913m0 0v2.913m0-2.913h-2.912m2.912 0h2.912m-2.912 10.194v2.913m0 0v2.912m0-2.912h-2.912m2.912 0h2.912m-2.912 10.194v2.913m0 0v2.912m0-2.912h-2.912m2.912 0h2.912M-2.986 78.64v2.912m0 0v2.913m0-2.913h-2.912m2.912 0h2.912m-2.912 10.195v2.912m0 0v2.913m0-2.913h-2.912m2.912 0h2.912m-2.912 10.194v2.913m0 0v2.913m0-2.913h-2.912m2.912 0h2.912m-2.912 10.194v2.913m0 0v2.912m0-2.912h-2.912m2.912 0h2.912m-2.912 10.194v2.913m0 0v2.912m0-2.912h-2.912m2.912 0h2.912m-2.912 10.194v2.912m0 0V150m0-2.913h-2.912m2.912 0h2.912M10.116 0v2.913m0 0v2.912m0-2.912h-2.91m2.912 0h2.911m-2.911 10.194v2.912m0 0v2.913m0-2.913H7.205m2.912 0h2.911m-2.911 10.195v2.912m0 0v2.913m0-2.913H7.205m2.912 0h2.911M10.117 39.32v2.913m0 0v2.913m0-2.913H7.205m2.912 0h2.911m-2.911 10.194v2.913m0 0v2.912m0-2.912H7.205m2.912 0h2.911m-2.911 10.194v2.913m0 0v2.912m0-2.912H7.205m2.912 0h2.911M10.117 78.64v2.912m0 0v2.913m0-2.913H7.205m2.912 0h2.911m-2.911 10.195v2.912m0 0v2.913m0-2.913H7.205m2.912 0h2.911m-2.911 10.194v2.913m0 0v2.913m0-2.913H7.205m2.912 0h2.911m-2.911 10.194v2.913m0 0v2.912m0-2.912H7.205m2.912 0h2.911m-2.911 10.194v2.913m0 0v2.912m0-2.912H7.205m2.912 0h2.911m-2.911 10.194v2.912m0 0V150m0-2.913H7.205m2.912 0h2.911M23.22 0v2.913m0 0v2.912m0-2.912h-2.912m2.912 0h2.912M23.22 13.107v2.912m0 0v2.913m0-2.913h-2.912m2.912 0h2.912M23.22 26.214v2.912m0 0v2.913m0-2.913h-2.912m2.912 0h2.912M23.219 39.32v2.913m0 0v2.913m0-2.913h-2.912m2.912 0h2.912m-2.912 10.194v2.913m0 0v2.912m0-2.912h-2.912m2.912 0h2.912m-2.912 10.194v2.913m0 0v2.912m0-2.912h-2.912m2.912 0h2.912M23.219 78.64v2.912m0 0v2.913m0-2.913h-2.912m2.912 0h2.912m-2.912 10.195v2.912m0 0v2.913m0-2.913h-2.912m2.912 0h2.912m-2.912 10.194v2.913m0 0v2.913m0-2.913h-2.912m2.912 0h2.912m-2.912 10.194v2.913m0 0v2.912m0-2.912h-2.912m2.912 0h2.912m-2.912 10.194v2.913m0 0v2.912m0-2.912h-2.912m2.912 0h2.912m-2.912 10.194v2.912m0 0V150m0-2.913h-2.912m2.912 0h2.912M36.32 0v2.913m0 0v2.912m0-2.912h-2.91m2.912 0h2.911m-2.911 10.194v2.912m0 0v2.913m0-2.913H33.41m2.912 0h2.911m-2.911 10.195v2.912m0 0v2.913m0-2.913H33.41m2.912 0h2.911M36.322 39.32v2.913m0 0v2.913m0-2.913H33.41m2.912 0h2.911m-2.911 10.194v2.913m0 0v2.912m0-2.912H33.41m2.912 0h2.911m-2.911 10.194v2.913m0 0v2.912m0-2.912H33.41m2.912 0h2.911M36.322 78.64v2.912m0 0v2.913m0-2.913H33.41m2.912 0h2.911m-2.911 10.195v2.912m0 0v2.913m0-2.913H33.41m2.912 0h2.911m-2.911 10.194v2.913m0 0v2.913m0-2.913H33.41m2.912 0h2.911m-2.911 10.194v2.913m0 0v2.912m0-2.912H33.41m2.912 0h2.911m-2.911 10.194v2.913m0 0v2.912m0-2.912H33.41m2.912 0h2.911m-2.911 10.194v2.912m0 0V150m0-2.913H33.41m2.912 0h2.911M49.424 0v2.913m0 0v2.912m0-2.912h-2.912m2.912 0h2.912m-2.912 10.194v2.912m0 0v2.913m0-2.913h-2.912m2.912 0h2.912m-2.912 10.195v2.912m0 0v2.913m0-2.913h-2.912m2.912 0h2.912M49.424 39.32v2.913m0 0v2.913m0-2.913h-2.912m2.912 0h2.912m-2.912 10.194v2.913m0 0v2.912m0-2.912h-2.912m2.912 0h2.912m-2.912 10.194v2.913m0 0v2.912m0-2.912h-2.912m2.912 0h2.912M49.424 78.64v2.912m0 0v2.913m0-2.913h-2.912m2.912 0h2.912m-2.912 10.195v2.912m0 0v2.913m0-2.913h-2.912m2.912 0h2.912m-2.912 10.194v2.913m0 0v2.913m0-2.913h-2.912m2.912 0h2.912m-2.912 10.194v2.913m0 0v2.912m0-2.912h-2.912m2.912 0h2.912m-2.912 10.194v2.913m0 0v2.912m0-2.912h-2.912m2.912 0h2.912m-2.912 10.194v2.912m0 0V150m0-2.913h-2.912m2.912 0h2.912M62.526 0v2.913m0 0v2.912m0-2.912h-2.911m2.911 0h2.912m-2.912 10.194v2.912m0 0v2.913m0-2.913h-2.911m2.911 0h2.912m-2.912 10.195v2.912m0 0v2.913m0-2.913h-2.911m2.911 0h2.912M62.526 39.32v2.913m0 0v2.913m0-2.913h-2.911m2.911 0h2.912m-2.912 10.194v2.913m0 0v2.912m0-2.912h-2.911m2.911 0h2.912m-2.912 10.194v2.913m0 0v2.912m0-2.912h-2.911m2.911 0h2.912M62.526 78.64v2.912m0 0v2.913m0-2.913h-2.911m2.911 0h2.912m-2.912 10.195v2.912m0 0v2.913m0-2.913h-2.911m2.911 0h2.912m-2.912 10.194v2.913m0 0v2.913m0-2.913h-2.911m2.911 0h2.912m-2.912 10.194v2.913m0 0v2.912m0-2.912h-2.911m2.911 0h2.912m-2.912 10.194v2.913m0 0v2.912m0-2.912h-2.911m2.911 0h2.912m-2.912 10.194v2.912m0 0V150m0-2.913h-2.911m2.911 0h2.912M75.63 0v2.913m0 0v2.912m0-2.912h-2.912m2.912 0h2.912M75.63 13.107v2.912m0 0v2.913m0-2.913h-2.912m2.912 0h2.912M75.63 26.214v2.912m0 0v2.913m0-2.913h-2.912m2.912 0h2.912M75.629 39.32v2.913m0 0v2.913m0-2.913h-2.912m2.912 0h2.912m-2.912 10.194v2.913m0 0v2.912m0-2.912h-2.912m2.912 0h2.912m-2.912 10.194v2.913m0 0v2.912m0-2.912h-2.912m2.912 0h2.912M75.629 78.64v2.912m0 0v2.913m0-2.913h-2.912m2.912 0h2.912m-2.912 10.195v2.912m0 0v2.913m0-2.913h-2.912m2.912 0h2.912m-2.912 10.194v2.913m0 0v2.913m0-2.913h-2.912m2.912 0h2.912m-2.912 10.194v2.913m0 0v2.912m0-2.912h-2.912m2.912 0h2.912m-2.912 10.194v2.913m0 0v2.912m0-2.912h-2.912m2.912 0h2.912m-2.912 10.194v2.912m0 0V150m0-2.913h-2.912m2.912 0h2.912M88.73 0v2.913m0 0v2.912m0-2.912h-2.91m2.911 0h2.912m-2.912 10.194v2.912m0 0v2.913m0-2.913H85.82m2.911 0h2.912m-2.912 10.195v2.912m0 0v2.913m0-2.913H85.82m2.911 0h2.912M88.731 39.32v2.913m0 0v2.913m0-2.913H85.82m2.911 0h2.912m-2.912 10.194v2.913m0 0v2.912m0-2.912H85.82m2.911 0h2.912m-2.912 10.194v2.913m0 0v2.912m0-2.912H85.82m2.911 0h2.912M88.731 78.64v2.912m0 0v2.913m0-2.913H85.82m2.911 0h2.912m-2.912 10.195v2.912m0 0v2.913m0-2.913H85.82m2.911 0h2.912m-2.912 10.194v2.913m0 0v2.913m0-2.913H85.82m2.911 0h2.912m-2.912 10.194v2.913m0 0v2.912m0-2.912H85.82m2.911 0h2.912m-2.912 10.194v2.913m0 0v2.912m0-2.912H85.82m2.911 0h2.912m-2.912 10.194v2.912m0 0V150m0-2.913H85.82m2.911 0h2.912M101.834 0v2.913m0 0v2.912m0-2.912h-2.912m2.912 0h2.912m-2.912 10.194v2.912m0 0v2.913m0-2.913h-2.912m2.912 0h2.912m-2.912 10.195v2.912m0 0v2.913m0-2.913h-2.912m2.912 0h2.912m-2.912 10.194v2.913m0 0v2.913m0-2.913h-2.912m2.912 0h2.912m-2.912 10.194v2.913m0 0v2.912m0-2.912h-2.912m2.912 0h2.912m-2.912 10.194v2.913m0 0v2.912m0-2.912h-2.912m2.912 0h2.912m-2.912 10.194v2.912m0 0v2.913m0-2.913h-2.912m2.912 0h2.912m-2.912 10.195v2.912m0 0v2.913m0-2.913h-2.912m2.912 0h2.912m-2.912 10.194v2.913m0 0v2.913m0-2.913h-2.912m2.912 0h2.912m-2.912 10.194v2.913m0 0v2.912m0-2.912h-2.912m2.912 0h2.912m-2.912 10.194v2.913m0 0v2.912m0-2.912h-2.912m2.912 0h2.912m-2.912 10.194v2.912m0 0V150m0-2.913h-2.912m2.912 0h2.912M114.936 0v2.913m0 0v2.912m0-2.912h-2.911m2.911 0h2.912m-2.912 10.194v2.912m0 0v2.913m0-2.913h-2.911m2.911 0h2.912m-2.912 10.195v2.912m0 0v2.913m0-2.913h-2.911m2.911 0h2.912m-2.912 10.194v2.913m0 0v2.913m0-2.913h-2.911m2.911 0h2.912m-2.912 10.194v2.913m0 0v2.912m0-2.912h-2.911m2.911 0h2.912m-2.912 10.194v2.913m0 0v2.912m0-2.912h-2.911m2.911 0h2.912m-2.912 10.194v2.912m0 0v2.913m0-2.913h-2.911m2.911 0h2.912m-2.912 10.195v2.912m0 0v2.913m0-2.913h-2.911m2.911 0h2.912m-2.912 10.194v2.913m0 0v2.913m0-2.913h-2.911m2.911 0h2.912m-2.912 10.194v2.913m0 0v2.912m0-2.912h-2.911m2.911 0h2.912m-2.912 10.194v2.913m0 0v2.912m0-2.912h-2.911m2.911 0h2.912m-2.912 10.194v2.912m0 0V150m0-2.913h-2.911m2.911 0h2.912M128.039 0v2.913m0 0v2.912m0-2.912h-2.912m2.912 0h2.912m-2.912 10.194v2.912m0 0v2.913m0-2.913h-2.912m2.912 0h2.912m-2.912 10.195v2.912m0 0v2.913m0-2.913h-2.912m2.912 0h2.912m-2.912 10.194v2.913m0 0v2.913m0-2.913h-2.912m2.912 0h2.912m-2.912 10.194v2.913m0 0v2.912m0-2.912h-2.912m2.912 0h2.912m-2.912 10.194v2.913m0 0v2.912m0-2.912h-2.912m2.912 0h2.912m-2.912 10.194v2.912m0 0v2.913m0-2.913h-2.912m2.912 0h2.912m-2.912 10.195v2.912m0 0v2.913m0-2.913h-2.912m2.912 0h2.912m-2.912 10.194v2.913m0 0v2.913m0-2.913h-2.912m2.912 0h2.912m-2.912 10.194v2.913m0 0v2.912m0-2.912h-2.912m2.912 0h2.912m-2.912 10.194v2.913m0 0v2.912m0-2.912h-2.912m2.912 0h2.912m-2.912 10.194v2.912m0 0V150m0-2.913h-2.912m2.912 0h2.912M141.141 0v2.913m0 0v2.912m0-2.912h-2.911m2.911 0h2.912m-2.912 10.194v2.912m0 0v2.913m0-2.913h-2.911m2.911 0h2.912m-2.912 10.195v2.912m0 0v2.913m0-2.913h-2.911m2.911 0h2.912m-2.912 10.194v2.913m0 0v2.913m0-2.913h-2.911m2.911 0h2.912m-2.912 10.194v2.913m0 0v2.912m0-2.912h-2.911m2.911 0h2.912m-2.912 10.194v2.913m0 0v2.912m0-2.912h-2.911m2.911 0h2.912m-2.912 10.194v2.912m0 0v2.913m0-2.913h-2.911m2.911 0h2.912m-2.912 10.195v2.912m0 0v2.913m0-2.913h-2.911m2.911 0h2.912m-2.912 10.194v2.913m0 0v2.913m0-2.913h-2.911m2.911 0h2.912m-2.912 10.194v2.913m0 0v2.912m0-2.912h-2.911m2.911 0h2.912m-2.912 10.194v2.913m0 0v2.912m0-2.912h-2.911m2.911 0h2.912m-2.912 10.194v2.912m0 0V150m0-2.913h-2.911m2.911 0h2.912M154.244 0v2.913m0 0v2.912m0-2.912h-2.912m2.912 0h2.911m-2.911 10.194v2.912m0 0v2.913m0-2.913h-2.912m2.912 0h2.911m-2.911 10.195v2.912m0 0v2.913m0-2.913h-2.912m2.912 0h2.911m-2.911 10.194v2.913m0 0v2.913m0-2.913h-2.912m2.912 0h2.911m-2.911 10.194v2.913m0 0v2.912m0-2.912h-2.912m2.912 0h2.911m-2.911 10.194v2.913m0 0v2.912m0-2.912h-2.912m2.912 0h2.911m-2.911 10.194v2.912m0 0v2.913m0-2.913h-2.912m2.912 0h2.911m-2.911 10.195v2.912m0 0v2.913m0-2.913h-2.912m2.912 0h2.911m-2.911 10.194v2.913m0 0v2.913m0-2.913h-2.912m2.912 0h2.911m-2.911 10.194v2.913m0 0v2.912m0-2.912h-2.912m2.912 0h2.911m-2.911 10.194v2.913m0 0v2.912m0-2.912h-2.912m2.912 0h2.911m-2.911 10.194v2.912m0 0V150m0-2.913h-2.912m2.912 0h2.911M167.346 0v2.913m0 0v2.912m0-2.912h-2.911m2.911 0h2.912m-2.912 10.194v2.912m0 0v2.913m0-2.913h-2.911m2.911 0h2.912m-2.912 10.195v2.912m0 0v2.913m0-2.913h-2.911m2.911 0h2.912m-2.912 10.194v2.913m0 0v2.913m0-2.913h-2.911m2.911 0h2.912m-2.912 10.194v2.913m0 0v2.912m0-2.912h-2.911m2.911 0h2.912m-2.912 10.194v2.913m0 0v2.912m0-2.912h-2.911m2.911 0h2.912m-2.912 10.194v2.912m0 0v2.913m0-2.913h-2.911m2.911 0h2.912m-2.912 10.195v2.912m0 0v2.913m0-2.913h-2.911m2.911 0h2.912m-2.912 10.194v2.913m0 0v2.913m0-2.913h-2.911m2.911 0h2.912m-2.912 10.194v2.913m0 0v2.912m0-2.912h-2.911m2.911 0h2.912m-2.912 10.194v2.913m0 0v2.912m0-2.912h-2.911m2.911 0h2.912m-2.912 10.194v2.912m0 0V150m0-2.913h-2.911m2.911 0h2.912M180.449 0v2.913m0 0v2.912m0-2.912h-2.912m2.912 0h2.911m-2.911 10.194v2.912m0 0v2.913m0-2.913h-2.912m2.912 0h2.911m-2.911 10.195v2.912m0 0v2.913m0-2.913h-2.912m2.912 0h2.911m-2.911 10.194v2.913m0 0v2.913m0-2.913h-2.912m2.912 0h2.911m-2.911 10.194v2.913m0 0v2.912m0-2.912h-2.912m2.912 0h2.911m-2.911 10.194v2.913m0 0v2.912m0-2.912h-2.912m2.912 0h2.911m-2.911 10.194v2.912m0 0v2.913m0-2.913h-2.912m2.912 0h2.911m-2.911 10.195v2.912m0 0v2.913m0-2.913h-2.912m2.912 0h2.911m-2.911 10.194v2.913m0 0v2.913m0-2.913h-2.912m2.912 0h2.911m-2.911 10.194v2.913m0 0v2.912m0-2.912h-2.912m2.912 0h2.911m-2.911 10.194v2.913m0 0v2.912m0-2.912h-2.912m2.912 0h2.911m-2.911 10.194v2.912m0 0V150m0-2.913h-2.912m2.912 0h2.911" stroke="#fff" stroke-opacity=".3"/></svg>