<svg width="0" height="0" class="hidden">
  <symbol  xmlns="http://www.w3.org/2000/svg" viewBox="0 0 48 48" id="Group 3.2">
    <mask id="a" fill="#fff">
      <path d="M48 24.774V4.645H37.161V0H10.84v4.645H0v20.13h4.645v11.722a3.093 3.093 0 00-2.322 2.987 3.1 3.1 0 003.096 3.097c1.439 0 2.641-.99 2.987-2.323h7.078v1.333l1.901.633-.896 1.792 2.979 2.98 1.791-.897.634 1.901h4.213l.634-1.9 1.791.895 2.98-2.979-.897-1.792 1.902-.633v-1.333h7.078a3.093 3.093 0 002.987 2.323 3.1 3.1 0 003.096-3.097c0-1.44-.99-2.641-2.322-2.987V24.774H48zm-10.839-1.548V18.58h9.29v4.645h-9.29zm-24 0h-.774v-6.194h23.226v6.194H13.16zm24-10.839h9.29v4.645h-9.29v-4.645zm-1.548 3.097H12.387V9.29h23.226v6.194zm-24.774 1.548h-9.29v-4.645h9.29v4.645zM46.452 6.194v4.645h-9.29V6.194h9.29zm-10.84-4.646v6.194H12.388V1.548h23.226zM10.84 6.194v4.645H1.55V6.194h9.29zM1.549 18.58h9.29v4.645h-9.29V18.58zm3.87 22.451a1.55 1.55 0 01-1.548-1.548 1.55 1.55 0 011.548-1.549 1.55 1.55 0 011.549 1.549 1.55 1.55 0 01-1.549 1.548zm2.987-2.322a3.092 3.092 0 00-2.212-2.213V24.774h17.032v6.194h-1.333l-.634 1.9-1.791-.896-2.98 2.98.897 1.792-1.901.633v1.333H8.406zm22.562 1.764l-1.78.593-.13.345a5.429 5.429 0 01-.118.29l-.15.335.837 1.674-1.4 1.4-1.675-.836-.335.15c-.097.043-.194.08-.293.12l-.342.13-.592 1.777h-1.98l-.593-1.776-.341-.131c-.1-.04-.198-.078-.294-.12l-.335-.15-1.674.837-1.4-1.401.836-1.674-.15-.335a5.429 5.429 0 01-.119-.29l-.13-.345-1.778-.593v-1.98l1.78-.594.13-.345c.037-.098.075-.195.118-.29l.15-.335-.837-1.674 1.4-1.4 1.675.836.335-.15c.097-.043.194-.08.293-.12l.342-.13.592-1.776h1.98l.593 1.776.341.13c.1.04.198.078.294.121l.335.15 1.674-.837 1.4 1.4-.836 1.675.15.335c.043.095.081.192.119.29l.13.345 1.778.593v1.98zm13.161-.99a1.55 1.55 0 01-1.548 1.548 1.55 1.55 0 01-1.549-1.548 1.55 1.55 0 011.549-1.549 1.55 1.55 0 011.548 1.549zm-2.323-2.987a3.092 3.092 0 00-2.212 2.213h-7.078v-1.333l-1.901-.633.896-1.792-2.979-2.98-1.791.896-.634-1.9h-1.333v-6.194h17.032v11.723z"></path>
    </mask>
    <path d="M48 24.774V4.645H37.161V0H10.84v4.645H0v20.13h4.645v11.722a3.093 3.093 0 00-2.322 2.987 3.1 3.1 0 003.096 3.097c1.439 0 2.641-.99 2.987-2.323h7.078v1.333l1.901.633-.896 1.792 2.979 2.98 1.791-.897.634 1.901h4.213l.634-1.9 1.791.895 2.98-2.979-.897-1.792 1.902-.633v-1.333h7.078a3.093 3.093 0 002.987 2.323 3.1 3.1 0 003.096-3.097c0-1.44-.99-2.641-2.322-2.987V24.774H48zm-10.839-1.548V18.58h9.29v4.645h-9.29zm-24 0h-.774v-6.194h23.226v6.194H13.16zm24-10.839h9.29v4.645h-9.29v-4.645zm-1.548 3.097H12.387V9.29h23.226v6.194zm-24.774 1.548h-9.29v-4.645h9.29v4.645zM46.452 6.194v4.645h-9.29V6.194h9.29zm-10.84-4.646v6.194H12.388V1.548h23.226zM10.84 6.194v4.645H1.55V6.194h9.29zM1.549 18.58h9.29v4.645h-9.29V18.58zm3.87 22.451a1.55 1.55 0 01-1.548-1.548 1.55 1.55 0 011.548-1.549 1.55 1.55 0 011.549 1.549 1.55 1.55 0 01-1.549 1.548zm2.987-2.322a3.092 3.092 0 00-2.212-2.213V24.774h17.032v6.194h-1.333l-.634 1.9-1.791-.896-2.98 2.98.897 1.792-1.901.633v1.333H8.406zm22.562 1.764l-1.78.593-.13.345a5.429 5.429 0 01-.118.29l-.15.335.837 1.674-1.4 1.4-1.675-.836-.335.15c-.097.043-.194.08-.293.12l-.342.13-.592 1.777h-1.98l-.593-1.776-.341-.131c-.1-.04-.198-.078-.294-.12l-.335-.15-1.674.837-1.4-1.401.836-1.674-.15-.335a5.429 5.429 0 01-.119-.29l-.13-.345-1.778-.593v-1.98l1.78-.594.13-.345c.037-.098.075-.195.118-.29l.15-.335-.837-1.674 1.4-1.4 1.675.836.335-.15c.097-.043.194-.08.293-.12l.342-.13.592-1.776h1.98l.593 1.776.341.13c.1.04.198.078.294.121l.335.15 1.674-.837 1.4 1.4-.836 1.675.15.335c.043.095.081.192.119.29l.13.345 1.778.593v1.98zm13.161-.99a1.55 1.55 0 01-1.548 1.548 1.55 1.55 0 01-1.549-1.548 1.55 1.55 0 011.549-1.549 1.55 1.55 0 011.548 1.549zm-2.323-2.987a3.092 3.092 0 00-2.212 2.213h-7.078v-1.333l-1.901-.633.896-1.792-2.979-2.98-1.791.896-.634-1.9h-1.333v-6.194h17.032v11.723z"   stroke-width=".4" mask="url(#a)"></path>
    <path d="M14.035 3.197h1.349v1.348h-1.349V3.197zm3.097 0h1.349v1.348h-1.349V3.197zm15.484 0h1.349v2.897h-1.349V3.197zm-3.096 0h1.348v2.897h-1.349V3.197zm-3.097 0h1.348v2.897h-1.348V3.197zm-12.388 7.742h1.349v1.348h-1.349V10.94zm3.097 0h1.349v1.348h-1.349V10.94zm15.484 0h1.349v2.896h-1.349V10.94zm-3.096 0h1.348v2.896h-1.349V10.94zm-3.097 0h1.348v2.896h-1.348V10.94zM14.035 18.68h1.349v1.35h-1.349v-1.35zm3.097 0h1.349v1.35h-1.349v-1.35zm15.484 0h1.349v2.898h-1.349V18.68zm-3.096 0h1.348v2.898h-1.349V18.68zm-3.097 0h1.348v2.898h-1.348V18.68zM43.455 7.842h1.348V9.19h-1.348V7.842zm-3.097 0h1.349V9.19h-1.349V7.842zm3.097 6.193h1.348v1.349h-1.348v-1.349zm-3.097 0h1.349v1.349h-1.349v-1.349zm3.097 6.195h1.348v1.348h-1.348v-1.349zm-3.097 0h1.349v1.348h-1.349v-1.349zM6.294 7.842h1.348V9.19H6.294V7.842zm-3.097 0h1.348V9.19H3.197V7.842zm3.097 6.193h1.348v1.349H6.294v-1.349zm-3.097 0h1.348v1.349H3.197v-1.349zm3.097 6.195h1.348v1.348H6.294v-1.349zm-3.097 0h1.348v1.348H3.197v-1.349zM20.23 39.484A3.776 3.776 0 0124 35.713a3.775 3.775 0 013.771 3.77 3.776 3.776 0 01-3.77 3.772 3.775 3.775 0 01-3.772-3.771zm1.348 0A2.426 2.426 0 0024 41.906a2.426 2.426 0 002.423-2.422A2.426 2.426 0 0024 37.06a2.426 2.426 0 00-2.422 2.423z"   stroke-width=".2"></path>
  </symbol>
  <symbol  xmlns="http://www.w3.org/2000/svg" viewBox="0 0 48 51" id="Group 6.1">
    <path d="M47.522 22.42c-.272-2.124-1.184-3.816-1.567-4.45.277-4.42-.623-7.747-2.676-9.894a7.633 7.633 0 00-4.42-2.28c-1.447-2.98-3.909-3.557-5.405-3.417-2.8-2.54-5.392-2.6-7.1-2.186A7.585 7.585 0 0023.8 1.368 7.576 7.576 0 0021.245.193c-1.707-.415-4.299-.355-7.1 2.186-1.497-.14-3.958.436-5.405 3.416a7.63 7.63 0 00-4.42 2.28c-2.053 2.148-2.953 5.475-2.676 9.895-.382.634-1.294 2.326-1.567 4.45-.308 2.407.163 5.8 4.028 8.555-.448 2.574-.024 7.006 4.2 9.185-.176.937-.292 2.562.567 3.95.675 1.092 1.79 1.81 3.319 2.14.772 1.159 3.432 4.75 6.751 4.75h.064c1.78-.025 3.388-1.05 4.793-3.05 1.407 2 3.015 3.025 4.794 3.05 3.344.047 6.039-3.584 6.815-4.75 1.53-.33 2.645-1.047 3.32-2.14.859-1.389.742-3.013.567-3.95 4.224-2.179 4.648-6.61 4.2-9.185 3.865-2.754 4.336-6.148 4.027-8.555zm-5.542 7.429a.873.873 0 00-.377.95c.061.24 1.45 5.904-3.72 8.06a.877.877 0 00-.503 1.093c.006.019.618 1.911-.208 3.247-.448.725-1.281 1.19-2.474 1.384a.91.91 0 00-.635.426c-.71 1.18-3.058 4.223-5.407 4.223h-.04c-1.413-.021-2.76-1.156-4.002-3.374-.16-.284-.5-.46-.832-.46a.912.912 0 00-.798.46c-1.242 2.218-2.588 3.353-4.002 3.374-2.351.037-4.733-3.036-5.447-4.223a.91.91 0 00-.635-.426c-1.19-.193-2.02-.657-2.47-1.377-.836-1.343-.217-3.238-.211-3.255a.877.877 0 00-.504-1.092c-5.142-2.145-3.779-7.821-3.719-8.06a.873.873 0 00-.377-.95c-6.774-4.397-2.479-10.893-2.294-11.166a.868.868 0 00.15-.553c-.295-4.031.427-6.999 2.148-8.821C7.277 7.557 9.279 7.51 9.358 7.51c.371 0 .705-.22.843-.555 1.016-2.473 2.649-2.826 3.498-2.826.273 0 .466.037.53.051a.924.924 0 00.862-.232c1.848-1.799 3.747-2.49 5.645-2.055a5.652 5.652 0 012.404 1.229.92.92 0 00.642.259h.035a.92.92 0 00.642-.26 5.64 5.64 0 012.336-1.213c1.92-.467 3.843.218 5.713 2.04a.94.94 0 00.854.234c.271-.06 2.693-.497 4.036 2.773.136.332.47.551.837.556.085.001 2.087.046 3.741 1.798 1.72 1.823 2.443 4.79 2.147 8.82a.869.869 0 00.15.554c.012.017 1.158 1.712 1.446 3.957.376 2.929-.882 5.354-3.739 7.209z" ></path>
    <path d="M39.069 6.347a.915.915 0 00-1.149-.559c-5.647 1.833-5.712 6.427-5.712 6.622 0 .486.403.878.902.88h.006a.9.9 0 00.908-.874c.002-.144.1-3.533 4.47-4.95a.88.88 0 00.575-1.119zm4.102 23.701a.924.924 0 00-1.272-.167c-1.48 1.097-2.818 1.488-3.975 1.164-2.06-.578-3.099-3.22-3.109-3.248a.914.914 0 00-1.165-.52.877.877 0 00-.537 1.135c.054.142 1.356 3.496 4.298 4.329.438.124.886.186 1.34.186 1.354 0 2.778-.548 4.249-1.64a.869.869 0 00.171-1.24zm-15.352.737a.925.925 0 00-1.284 0 .867.867 0 000 1.25c2.948 2.87 2.337 5.644 2.305 5.776a.883.883 0 00.662 1.066.947.947 0 00.22.027.904.904 0 00.881-.67c.04-.155.93-3.832-2.784-7.449zM41.907 22.5a.916.916 0 00-1.162-.53c-.184.064-4.514 1.538-6.813-1.442-1.195-1.547-1.708-2.872-2.12-3.937-.507-1.306-.984-2.54-2.572-2.668a.902.902 0 00-.979.809.892.892 0 00.83.953c.38.03.523.245 1.021 1.53.43 1.108 1.018 2.625 2.368 4.375 1.582 2.05 3.79 2.565 5.61 2.565 1.762 0 3.16-.483 3.276-.524a.877.877 0 00.54-1.13zM23.783 1.613a.896.896 0 00-.908.884V46.28c0 .488.407.884.908.884a.896.896 0 00.908-.884V2.497a.897.897 0 00-.908-.884z" ></path>
    <path d="M30.422 9.229a.884.884 0 00-.921-.872.896.896 0 00-.895.897c0 .056.05 5.568-2.78 9.063a.868.868 0 00.15 1.242c.166.128.364.19.562.19a.914.914 0 00.713-.336c3.226-3.983 3.174-9.933 3.17-10.184zm1.846 27.08c-4.003 0-5.875 5.334-5.953 5.56a.878.878 0 00.574 1.118.919.919 0 00.288.046c.38 0 .733-.233.861-.603.418-1.211 1.994-4.353 4.23-4.353a.896.896 0 00.908-.884.897.897 0 00-.908-.884zM33.29 2.241a.924.924 0 00-1.27.182l-2.178 2.85a.869.869 0 00.187 1.236.915.915 0 00.54.176.913.913 0 00.73-.357l2.178-2.85a.869.869 0 00-.186-1.237zM14.701 7.955c-2.002 0-3.632 1.587-3.632 3.536 0 1.95 1.63 3.537 3.632 3.537 2.003 0 3.632-1.587 3.632-3.537s-1.63-3.536-3.632-3.536zm0 5.305c-1.001 0-1.816-.793-1.816-1.769 0-.975.815-1.768 1.816-1.768 1.002 0 1.816.793 1.816 1.768 0 .976-.814 1.769-1.816 1.769zm-6.356 6.188c-2.003 0-3.632 1.586-3.632 3.536s1.63 3.536 3.632 3.536c2.003 0 3.632-1.586 3.632-3.536s-1.63-3.536-3.632-3.536zm0 5.304c-1.002 0-1.816-.793-1.816-1.768s.814-1.768 1.816-1.768c1.002 0 1.816.793 1.816 1.768s-.814 1.768-1.816 1.768zm9.08 2.652c-2.002 0-3.632 1.587-3.632 3.537s1.63 3.536 3.632 3.536c2.003 0 3.632-1.586 3.632-3.536s-1.629-3.537-3.632-3.537zm0 5.305c-1.001 0-1.816-.793-1.816-1.768s.815-1.768 1.816-1.768c1.002 0 1.816.793 1.816 1.768s-.814 1.768-1.816 1.768zm0 4.421c-2.002 0-3.632 1.586-3.632 3.535 0 1.95 1.63 3.537 3.632 3.537 2.003 0 3.632-1.587 3.632-3.537s-1.629-3.536-3.632-3.536zm0 5.304c-1.001 0-1.816-.793-1.816-1.769 0-.975.815-1.768 1.816-1.768 1.002 0 1.816.793 1.816 1.768 0 .976-.814 1.769-1.816 1.769z" ></path>
    <path d="M14.701 13.26a.897.897 0 00-.908.883v8.841c0 .488.407.884.908.884a.896.896 0 00.908-.884v-8.84a.896.896 0 00-.908-.885z" ></path>
    <path d="M17.425 22.1H11.07a.896.896 0 00-.908.884c0 .488.407.884.908.884h6.356a.896.896 0 00.908-.884.896.896 0 00-.908-.884z" ></path>
    <path d="M17.425 22.1a.896.896 0 00-.908.884v5.304c0 .488.407.884.908.884a.896.896 0 00.908-.884v-5.304a.896.896 0 00-.908-.884zm0 10.609a.896.896 0 00-.908.884v4.42c0 .488.407.884.908.884a.896.896 0 00.908-.884v-4.42a.896.896 0 00-.908-.884z" ></path>
  </symbol>
  <symbol  xmlns="http://www.w3.org/2000/svg" viewBox="0 0 60 60" id="Group 10">
    <circle cx="29.638" cy="29.968" r="2.707"  stroke-width="2.1"></circle>
    <path d="M43.83 10.766l7.097 12.106"  stroke-width="2.1" stroke-linecap="round"></path>
    <circle cx="42.161" cy="8.261" r="2.707"  stroke-width="2.1"></circle>
    <path d="M53.061 32.372L46.126 44.57"  stroke-width="2.1" stroke-linecap="round"></path>
    <circle cx="54.396" cy="29.673" r="2.707" transform="rotate(60 54.396 29.673)"  stroke-width="2.1"></circle>
    <path d="M39.077 51.466l-14.032.093"  stroke-width="2.1" stroke-linecap="round"></path>
    <circle cx="42.082" cy="51.272" r="2.707" transform="rotate(120 42.082 51.272)"  stroke-width="2.1"></circle>
    <path d="M15.445 48.335L8.349 36.229"  stroke-width="2.1" stroke-linecap="round"></path>
    <circle cx="17.115" cy="50.839" r="2.707" transform="rotate(-180 17.115 50.84)"  stroke-width="2.1"></circle>
    <path d="M6.466 26.721l6.936-12.198"  stroke-width="2.1" stroke-linecap="round"></path>
    <circle cx="5.132" cy="29.42" r="2.707" transform="rotate(-120 5.132 29.42)"  stroke-width="2.1"></circle>
    <path d="M20.659 8.146l14.032-.093"  stroke-width="2.1" stroke-linecap="round"></path>
    <circle cx="17.655" cy="8.339" r="2.707" transform="rotate(-60 17.655 8.34)"  stroke-width="2.1"></circle>
  </symbol>
  <symbol  xmlns="http://www.w3.org/2000/svg" viewBox="0 0 55 55" id="Vector">
    <mask id="a" maskUnits="userSpaceOnUse" x="0" y="0" width="55" height="55" fill="#000">
      <path fill="#fff" d="M0 0h55v55H0z"></path>
      <path d="M53.223 26.724h-12.5v-1.767h3.373a.776.776 0 100-1.553h-3.373v-1.766h2.341c.873 0 1.693-.34 2.31-.956l5.106-5.106a2.43 2.43 0 001.084.253 2.42 2.42 0 001.722-.713A2.42 2.42 0 0054 13.394a2.42 2.42 0 00-.714-1.723 2.42 2.42 0 00-1.722-.713 2.42 2.42 0 00-1.723.713 2.42 2.42 0 00-.713 1.723c0 .382.088.75.254 1.084l-5.106 5.106a1.702 1.702 0 01-1.212.501h-2.341v-1.713a4.1 4.1 0 00-4.096-4.095h-1.713V7.404a2.44 2.44 0 001.66-2.308 2.439 2.439 0 00-2.436-2.436 2.439 2.439 0 00-2.436 2.436 2.44 2.44 0 001.66 2.308v6.873h-1.767v-3.373a.776.776 0 00-1.552 0v3.373h-1.767v-12.5a.776.776 0 00-1.553 0v12.5h-1.766v-3.373a.776.776 0 00-1.553 0v3.373h-1.766v-2.342c0-.872-.34-1.692-.957-2.309l-5.108-5.108c.452-.91.3-2.047-.457-2.804a2.439 2.439 0 00-3.445 0c-.95.95-.95 2.495 0 3.445a2.429 2.429 0 002.805.457l5.107 5.108c.324.324.502.754.502 1.211v2.342h-1.713c-.346 0-.69.043-1.023.129a.776.776 0 00.386 1.504c.207-.053.421-.08.637-.08h18.255a2.546 2.546 0 012.543 2.542v18.256c0 .215-.027.43-.08.636a.776.776 0 001.504.386c.085-.332.129-.676.129-1.022v-1.713h6.873a2.44 2.44 0 002.308 1.66 2.439 2.439 0 002.436-2.437 2.439 2.439 0 00-2.436-2.436 2.44 2.44 0 00-2.308 1.66h-6.873v-1.767h3.372a.776.776 0 000-1.552h-3.372v-1.767h12.5a.776.776 0 000-1.552zM50.94 12.769a.877.877 0 01.625-.259c.236 0 .457.092.624.26a.877.877 0 01.259.624.877.877 0 01-.259.624.877.877 0 01-.624.259.877.877 0 01-.625-.259.877.877 0 01-.259-.624c0-.236.092-.458.26-.625zM14.018 4.061a.884.884 0 01-1.25-1.25.88.88 0 011.25 0 .884.884 0 010 1.25zm20.12 1.918a.884.884 0 010-1.767.884.884 0 010 1.767zm15.766 27.276a.884.884 0 010 1.767.884.884 0 010-1.767zm-6.575 16.587a2.438 2.438 0 00-2.805-.458l-5.108-5.108a1.701 1.701 0 01-.501-1.211v-2.342h1.713c.346 0 .69-.043 1.023-.129a.776.776 0 00-.387-1.504 2.56 2.56 0 01-.636.08H18.372a2.546 2.546 0 01-2.543-2.542V18.372c0-.215.027-.43.08-.636a.776.776 0 00-1.503-.387 4.105 4.105 0 00-.13 1.023v1.713H7.405a2.44 2.44 0 00-2.309-1.66 2.439 2.439 0 00-2.435 2.437 2.439 2.439 0 002.435 2.436 2.44 2.44 0 002.309-1.66h6.873v1.766h-3.373a.776.776 0 000 1.553h3.373v1.767h-12.5a.776.776 0 000 1.552h12.5v1.767h-3.373a.776.776 0 000 1.553h3.373v1.766h-2.342c-.872 0-1.692.34-2.31.956L4.52 39.424a2.425 2.425 0 00-1.084-.254 2.42 2.42 0 00-1.723.714A2.421 2.421 0 001 41.606c0 .651.253 1.263.714 1.723a2.42 2.42 0 001.722.713 2.42 2.42 0 001.723-.713 2.42 2.42 0 00.713-1.723c0-.382-.088-.751-.254-1.084l5.106-5.106a1.702 1.702 0 011.211-.501h2.342v1.713a4.1 4.1 0 004.095 4.095h1.713v6.873a2.44 2.44 0 00-1.66 2.308 2.439 2.439 0 002.437 2.436 2.439 2.439 0 002.436-2.436 2.44 2.44 0 00-1.66-2.308v-6.873h1.766v3.373a.776.776 0 001.553 0v-3.373h1.767v12.5a.776.776 0 101.552 0v-12.5h1.767v3.373a.776.776 0 001.552 0v-3.373h1.767v2.342c0 .872.34 1.692.956 2.309l5.108 5.108c-.451.91-.3 2.047.458 2.804a2.428 2.428 0 001.722.713 2.437 2.437 0 001.723-4.157zM5.095 21.745a.884.884 0 010-1.767.884.884 0 010 1.767zM4.06 42.23a.877.877 0 01-.624.259.877.877 0 01-.625-.26.877.877 0 01-.258-.624.88.88 0 01.258-.624.878.878 0 01.625-.259c.236 0 .458.092.624.259a.877.877 0 01.26.624.877.877 0 01-.26.625zm17.685 7.673a.884.884 0 01-1.767 0 .884.884 0 011.767 0zm20.486 2.284a.884.884 0 01-1.25-1.248.88.88 0 011.25 0 .884.884 0 010 1.248z"></path>
      <path d="M24.302 32v-9.884h5.754v1.204h-4.368v3.094h3.542v1.204h-3.542v3.178h4.606V32h-5.992z"></path>
    </mask>
    <path d="M53.223 26.724h-12.5v-1.767h3.373a.776.776 0 100-1.553h-3.373v-1.766h2.341c.873 0 1.693-.34 2.31-.956l5.106-5.106a2.43 2.43 0 001.084.253 2.42 2.42 0 001.722-.713A2.42 2.42 0 0054 13.394a2.42 2.42 0 00-.714-1.723 2.42 2.42 0 00-1.722-.713 2.42 2.42 0 00-1.723.713 2.42 2.42 0 00-.713 1.723c0 .382.088.75.254 1.084l-5.106 5.106a1.702 1.702 0 01-1.212.501h-2.341v-1.713a4.1 4.1 0 00-4.096-4.095h-1.713V7.404a2.44 2.44 0 001.66-2.308 2.439 2.439 0 00-2.436-2.436 2.439 2.439 0 00-2.436 2.436 2.44 2.44 0 001.66 2.308v6.873h-1.767v-3.373a.776.776 0 00-1.552 0v3.373h-1.767v-12.5a.776.776 0 00-1.553 0v12.5h-1.766v-3.373a.776.776 0 00-1.553 0v3.373h-1.766v-2.342c0-.872-.34-1.692-.957-2.309l-5.108-5.108c.452-.91.3-2.047-.457-2.804a2.439 2.439 0 00-3.445 0c-.95.95-.95 2.495 0 3.445a2.429 2.429 0 002.805.457l5.107 5.108c.324.324.502.754.502 1.211v2.342h-1.713c-.346 0-.69.043-1.023.129a.776.776 0 00.386 1.504c.207-.053.421-.08.637-.08h18.255a2.546 2.546 0 012.543 2.542v18.256c0 .215-.027.43-.08.636a.776.776 0 001.504.386c.085-.332.129-.676.129-1.022v-1.713h6.873a2.44 2.44 0 002.308 1.66 2.439 2.439 0 002.436-2.437 2.439 2.439 0 00-2.436-2.436 2.44 2.44 0 00-2.308 1.66h-6.873v-1.767h3.372a.776.776 0 000-1.552h-3.372v-1.767h12.5a.776.776 0 000-1.552zM50.94 12.769a.877.877 0 01.625-.259c.236 0 .457.092.624.26a.877.877 0 01.259.624.877.877 0 01-.259.624.877.877 0 01-.624.259.877.877 0 01-.625-.259.877.877 0 01-.259-.624c0-.236.092-.458.26-.625zM14.018 4.061a.884.884 0 01-1.25-1.25.88.88 0 011.25 0 .884.884 0 010 1.25zm20.12 1.918a.884.884 0 010-1.767.884.884 0 010 1.767zm15.766 27.276a.884.884 0 010 1.767.884.884 0 010-1.767zm-6.575 16.587a2.438 2.438 0 00-2.805-.458l-5.108-5.108a1.701 1.701 0 01-.501-1.211v-2.342h1.713c.346 0 .69-.043 1.023-.129a.776.776 0 00-.387-1.504 2.56 2.56 0 01-.636.08H18.372a2.546 2.546 0 01-2.543-2.542V18.372c0-.215.027-.43.08-.636a.776.776 0 00-1.503-.387 4.105 4.105 0 00-.13 1.023v1.713H7.405a2.44 2.44 0 00-2.309-1.66 2.439 2.439 0 00-2.435 2.437 2.439 2.439 0 002.435 2.436 2.44 2.44 0 002.309-1.66h6.873v1.766h-3.373a.776.776 0 000 1.553h3.373v1.767h-12.5a.776.776 0 000 1.552h12.5v1.767h-3.373a.776.776 0 000 1.553h3.373v1.766h-2.342c-.872 0-1.692.34-2.31.956L4.52 39.424a2.425 2.425 0 00-1.084-.254 2.42 2.42 0 00-1.723.714A2.421 2.421 0 001 41.606c0 .651.253 1.263.714 1.723a2.42 2.42 0 001.722.713 2.42 2.42 0 001.723-.713 2.42 2.42 0 00.713-1.723c0-.382-.088-.751-.254-1.084l5.106-5.106a1.702 1.702 0 011.211-.501h2.342v1.713a4.1 4.1 0 004.095 4.095h1.713v6.873a2.44 2.44 0 00-1.66 2.308 2.439 2.439 0 002.437 2.436 2.439 2.439 0 002.436-2.436 2.44 2.44 0 00-1.66-2.308v-6.873h1.766v3.373a.776.776 0 001.553 0v-3.373h1.767v12.5a.776.776 0 101.552 0v-12.5h1.767v3.373a.776.776 0 001.552 0v-3.373h1.767v2.342c0 .872.34 1.692.956 2.309l5.108 5.108c-.451.91-.3 2.047.458 2.804a2.428 2.428 0 001.722.713 2.437 2.437 0 001.723-4.157zM5.095 21.745a.884.884 0 010-1.767.884.884 0 010 1.767zM4.06 42.23a.877.877 0 01-.624.259.877.877 0 01-.625-.26.877.877 0 01-.258-.624.88.88 0 01.258-.624.878.878 0 01.625-.259c.236 0 .458.092.624.259a.877.877 0 01.26.624.877.877 0 01-.26.625zm17.685 7.673a.884.884 0 01-1.767 0 .884.884 0 011.767 0zm20.486 2.284a.884.884 0 01-1.25-1.248.88.88 0 011.25 0 .884.884 0 010 1.248z" ></path>
    <path d="M24.302 32v-9.884h5.754v1.204h-4.368v3.094h3.542v1.204h-3.542v3.178h4.606V32h-5.992z" ></path>
    <path d="M53.223 26.724h-12.5v-1.767h3.373a.776.776 0 100-1.553h-3.373v-1.766h2.341c.873 0 1.693-.34 2.31-.956l5.106-5.106a2.43 2.43 0 001.084.253 2.42 2.42 0 001.722-.713A2.42 2.42 0 0054 13.394a2.42 2.42 0 00-.714-1.723 2.42 2.42 0 00-1.722-.713 2.42 2.42 0 00-1.723.713 2.42 2.42 0 00-.713 1.723c0 .382.088.75.254 1.084l-5.106 5.106a1.702 1.702 0 01-1.212.501h-2.341v-1.713a4.1 4.1 0 00-4.096-4.095h-1.713V7.404a2.44 2.44 0 001.66-2.308 2.439 2.439 0 00-2.436-2.436 2.439 2.439 0 00-2.436 2.436 2.44 2.44 0 001.66 2.308v6.873h-1.767v-3.373a.776.776 0 00-1.552 0v3.373h-1.767v-12.5a.776.776 0 00-1.553 0v12.5h-1.766v-3.373a.776.776 0 00-1.553 0v3.373h-1.766v-2.342c0-.872-.34-1.692-.957-2.309l-5.108-5.108c.452-.91.3-2.047-.457-2.804a2.439 2.439 0 00-3.445 0c-.95.95-.95 2.495 0 3.445a2.429 2.429 0 002.805.457l5.107 5.108c.324.324.502.754.502 1.211v2.342h-1.713c-.346 0-.69.043-1.023.129a.776.776 0 00.386 1.504c.207-.053.421-.08.637-.08h18.255a2.546 2.546 0 012.543 2.542v18.256c0 .215-.027.43-.08.636a.776.776 0 001.504.386c.085-.332.129-.676.129-1.022v-1.713h6.873a2.44 2.44 0 002.308 1.66 2.439 2.439 0 002.436-2.437 2.439 2.439 0 00-2.436-2.436 2.44 2.44 0 00-2.308 1.66h-6.873v-1.767h3.372a.776.776 0 000-1.552h-3.372v-1.767h12.5a.776.776 0 000-1.552zM50.94 12.769a.877.877 0 01.625-.259c.236 0 .457.092.624.26a.877.877 0 01.259.624.877.877 0 01-.259.624.877.877 0 01-.624.259.877.877 0 01-.625-.259.877.877 0 01-.259-.624c0-.236.092-.458.26-.625zM14.018 4.061a.884.884 0 01-1.25-1.25.88.88 0 011.25 0 .884.884 0 010 1.25zm20.12 1.918a.884.884 0 010-1.767.884.884 0 010 1.767zm15.766 27.276a.884.884 0 010 1.767.884.884 0 010-1.767zm-6.575 16.587a2.438 2.438 0 00-2.805-.458l-5.108-5.108a1.701 1.701 0 01-.501-1.211v-2.342h1.713c.346 0 .69-.043 1.023-.129a.776.776 0 00-.387-1.504 2.56 2.56 0 01-.636.08H18.372a2.546 2.546 0 01-2.543-2.542V18.372c0-.215.027-.43.08-.636a.776.776 0 00-1.503-.387 4.105 4.105 0 00-.13 1.023v1.713H7.405a2.44 2.44 0 00-2.309-1.66 2.439 2.439 0 00-2.435 2.437 2.439 2.439 0 002.435 2.436 2.44 2.44 0 002.309-1.66h6.873v1.766h-3.373a.776.776 0 000 1.553h3.373v1.767h-12.5a.776.776 0 000 1.552h12.5v1.767h-3.373a.776.776 0 000 1.553h3.373v1.766h-2.342c-.872 0-1.692.34-2.31.956L4.52 39.424a2.425 2.425 0 00-1.084-.254 2.42 2.42 0 00-1.723.714A2.421 2.421 0 001 41.606c0 .651.253 1.263.714 1.723a2.42 2.42 0 001.722.713 2.42 2.42 0 001.723-.713 2.42 2.42 0 00.713-1.723c0-.382-.088-.751-.254-1.084l5.106-5.106a1.702 1.702 0 011.211-.501h2.342v1.713a4.1 4.1 0 004.095 4.095h1.713v6.873a2.44 2.44 0 00-1.66 2.308 2.439 2.439 0 002.437 2.436 2.439 2.439 0 002.436-2.436 2.44 2.44 0 00-1.66-2.308v-6.873h1.766v3.373a.776.776 0 001.553 0v-3.373h1.767v12.5a.776.776 0 101.552 0v-12.5h1.767v3.373a.776.776 0 001.552 0v-3.373h1.767v2.342c0 .872.34 1.692.956 2.309l5.108 5.108c-.451.91-.3 2.047.458 2.804a2.428 2.428 0 001.722.713 2.437 2.437 0 001.723-4.157zM5.095 21.745a.884.884 0 010-1.767.884.884 0 010 1.767zM4.06 42.23a.877.877 0 01-.624.259.877.877 0 01-.625-.26.877.877 0 01-.258-.624.88.88 0 01.258-.624.878.878 0 01.625-.259c.236 0 .458.092.624.259a.877.877 0 01.26.624.877.877 0 01-.26.625zm17.685 7.673a.884.884 0 01-1.767 0 .884.884 0 011.767 0zm20.486 2.284a.884.884 0 01-1.25-1.248.88.88 0 011.25 0 .884.884 0 010 1.248z"  stroke-width=".4" mask="url(#a)"></path>
    <path d="M24.302 32v-9.884h5.754v1.204h-4.368v3.094h3.542v1.204h-3.542v3.178h4.606V32h-5.992z"  stroke-width=".4" mask="url(#a)"></path>
  </symbol>
</svg>